<?xml version="1.0" standalone="no"?>
<!DOCTYPE svg PUBLIC "-//W3C//DTD SVG 20010904//EN"
 "http://www.w3.org/TR/2001/REC-SVG-20010904/DTD/svg10.dtd">
<svg version="1.0" xmlns="http://www.w3.org/2000/svg"
 width="966.000000pt" height="958.000000pt" viewBox="0 0 966.000000 958.000000"
 preserveAspectRatio="xMidYMid meet">

<g transform="translate(0.000000,958.000000) scale(0.100000,-0.100000)"
fill="#000000" stroke="none">
<path d="M601 9564 c0 -11 3 -14 6 -6 3 7 2 16 -1 19 -3 4 -6 -2 -5 -13z"/>
<path d="M798 9573 c7 -3 16 -2 19 1 4 3 -2 6 -13 5 -11 0 -14 -3 -6 -6z"/>
<path d="M1132 9547 c42 -37 48 -51 66 -162 4 -28 11 -56 16 -63 4 -7 12 -56
16 -109 7 -82 12 -99 33 -120 23 -24 26 -24 55 -9 40 21 48 20 72 -4 11 -11
33 -20 49 -20 15 0 43 -11 62 -25 75 -54 112 -68 192 -73 42 -2 77 -8 77 -13
0 -14 52 -10 64 5 6 8 38 17 70 20 33 3 78 15 101 26 45 22 85 26 101 10 15
-15 62 4 85 34 21 27 76 42 134 38 34 -2 43 -8 54 -32 7 -17 20 -30 30 -30 10
0 23 -11 29 -24 10 -23 26 -29 112 -42 19 -3 53 -14 75 -25 40 -18 95 -72 95
-91 0 -22 74 -78 102 -78 16 0 31 -7 34 -15 4 -11 21 -15 55 -15 34 0 49 -4
49 -13 0 -18 73 -44 78 -28 4 13 32 15 32 2 0 -5 -8 -12 -17 -16 -17 -7 -16
-8 2 -15 22 -8 45 5 45 26 0 10 14 14 50 14 l50 0 0 80 0 80 -40 0 -40 0 0 40
c0 22 5 40 10 40 6 0 10 18 10 40 0 22 -4 40 -10 40 -5 0 -10 -18 -10 -40 0
-38 -2 -40 -30 -40 -28 0 -30 2 -30 40 0 22 -4 40 -10 40 -5 0 -10 18 -10 40
0 22 -4 40 -10 40 -5 0 -10 18 -10 40 0 33 -3 40 -20 40 -17 0 -20 7 -20 40 0
22 -4 40 -10 40 -5 0 -10 -18 -10 -40 0 -22 -4 -40 -10 -40 -6 0 -10 33 -10
80 0 73 -2 80 -20 80 -18 0 -20 7 -20 80 l0 80 -50 0 -50 0 0 -40 c0 -22 -4
-40 -10 -40 -6 0 -10 33 -10 80 l0 80 -842 0 -843 0 37 -33z"/>
<path d="M2960 9380 c0 -22 5 -40 10 -40 6 0 10 18 10 40 0 22 -4 40 -10 40
-5 0 -10 -18 -10 -40z"/>
<path d="M4580 7023 c-8 -3 -29 -12 -47 -20 -17 -8 -40 -12 -50 -9 -10 3 -31
-1 -47 -9 -32 -17 -142 -38 -193 -37 -22 0 -33 -4 -33 -14 0 -17 -12 -18 -27
-3 -16 16 -51 -7 -82 -53 -14 -20 -44 -44 -70 -56 -25 -11 -54 -29 -64 -39
-40 -41 -57 -68 -52 -80 2 -8 1 -12 -4 -8 -15 9 -47 -45 -76 -130 -29 -84 -33
-143 -16 -260 4 -33 8 -109 7 -170 l-1 -110 -47 -3 c-45 -3 -48 -5 -58 -40 -5
-20 -12 -77 -15 -127 -4 -75 -3 -85 7 -57 6 17 14 32 17 32 9 0 7 -103 -2
-117 -5 -8 -2 -22 7 -35 l15 -21 12 26 c7 16 20 27 32 27 16 0 18 -5 12 -27
-8 -35 -32 -73 -45 -73 -21 0 -8 -19 31 -45 57 -37 153 -36 145 3 -7 38 -19
78 -26 87 -4 6 -15 44 -23 85 -14 65 -14 88 -2 165 7 50 16 118 19 151 3 34
13 84 21 112 13 42 18 49 35 45 14 -4 30 5 52 26 21 20 38 29 50 25 10 -3 18
-1 18 5 0 6 7 11 15 11 9 0 18 7 22 16 3 8 16 20 29 24 13 5 22 15 20 22 -1 7
-1 10 1 7 2 -4 12 -5 22 -2 15 4 19 0 17 -21 -1 -20 -6 -26 -23 -26 -13 0 -23
-4 -23 -10 0 -5 11 -10 25 -10 14 0 25 -2 25 -5 0 -6 -49 -55 -55 -54 -15 1
-85 -36 -85 -45 0 -6 -15 -41 -34 -79 -21 -41 -32 -75 -29 -88 3 -12 1 -24 -6
-28 -16 -10 -2 -42 16 -39 9 2 20 -6 27 -17 6 -11 14 -22 18 -25 13 -10 20
-60 8 -60 -6 0 -8 -4 -5 -10 4 -6 -7 -10 -24 -10 -22 0 -31 -5 -32 -17 -6 -74
-9 -95 -17 -110 -10 -20 -9 -119 1 -130 4 -3 7 2 7 13 0 15 2 16 9 5 5 -8 7
-21 3 -29 -3 -10 -1 -13 6 -8 6 3 13 2 17 -4 3 -5 -1 -10 -9 -10 -12 0 -16
-10 -16 -40 0 -29 4 -40 15 -40 20 0 19 -17 -2 -29 -10 -6 -14 -11 -9 -11 5 0
4 -6 -2 -12 -11 -14 6 -124 31 -197 11 -31 12 -45 3 -54 -7 -8 -12 -80 -14
-217 -2 -161 -7 -226 -22 -300 -12 -52 -26 -120 -31 -150 -6 -30 -14 -62 -16
-70 -3 -8 -6 -35 -7 -60 -2 -48 25 -93 51 -83 7 3 26 0 42 -5 17 -6 32 -7 38
-1 5 5 50 10 100 11 95 2 130 -10 118 -40 -4 -10 0 -12 11 -8 14 5 15 4 5 -8
-10 -12 -8 -14 11 -9 l23 5 -24 -18 c-23 -17 -23 -18 -5 -25 18 -7 -116 -13
-196 -9 -58 3 -162 28 -226 54 -68 28 -163 83 -181 106 -16 19 -16 21 1 -205
10 -120 11 -206 6 -255 -12 -97 -12 -112 -1 -106 5 3 11 -13 14 -37 3 -23 2
-43 -2 -45 -4 -1 -5 -17 -3 -35 3 -17 1 -29 -3 -25 -5 5 -14 -1 -22 -12 -8
-11 -24 -20 -36 -20 -14 0 -18 3 -10 8 10 6 9 16 -4 45 -16 35 -20 37 -62 37
-40 0 -43 -1 -26 -13 12 -10 15 -19 9 -28 -5 -8 -7 -22 -6 -31 3 -19 -12 -23
-79 -19 -27 2 -42 -3 -58 -20 -11 -12 -18 -25 -15 -28 3 -3 9 1 13 8 11 17 32
5 25 -14 -5 -12 2 -15 32 -13 43 1 84 -9 84 -21 0 -5 -43 -9 -95 -10 -96 -2
-230 -14 -277 -26 -23 -6 -26 -3 -30 25 -4 26 0 34 21 45 28 16 28 16 -11 19
-27 2 -28 0 -28 -46 0 -28 -5 -48 -11 -48 -7 0 -9 16 -4 49 4 31 3 51 -4 56
-6 3 -12 -2 -13 -12 -1 -10 -2 -25 -4 -33 -1 -8 -2 -25 -3 -37 -1 -18 -7 -23
-26 -23 -22 0 -25 -3 -19 -25 4 -15 2 -25 -5 -25 -6 0 -11 -14 -11 -32 0 -17
-2 -29 -6 -26 -3 3 -5 120 -5 259 1 300 -4 352 -29 344 -10 -3 -21 -1 -25 5
-3 5 -11 10 -16 10 -6 0 -7 -4 -4 -10 3 -5 2 -10 -4 -10 -5 0 -11 3 -13 8 -4
9 -125 48 -195 63 -46 9 -61 8 -118 -12 -36 -12 -64 -23 -63 -24 2 -2 34 4 71
11 65 14 71 13 100 -5 32 -19 116 -37 150 -32 10 1 17 -4 17 -13 0 -9 -6 -16
-14 -16 -8 0 -16 -5 -18 -12 -3 -7 -24 -11 -54 -10 -27 0 -63 -6 -80 -13 -22
-10 -40 -12 -61 -6 -24 7 -35 5 -47 -7 -12 -12 -16 -13 -16 -3 0 11 -3 11 -15
1 -8 -7 -24 -10 -35 -7 -17 4 -19 1 -15 -21 3 -15 2 -20 -1 -12 -4 8 -14 19
-22 24 -12 7 -12 10 -1 17 9 5 -2 7 -28 5 -45 -4 -114 -50 -90 -59 6 -3 0 -6
-16 -6 -15 -1 -35 -10 -44 -21 -10 -11 -24 -20 -31 -20 -8 0 -12 -6 -8 -15 4
-12 -3 -15 -37 -15 -47 0 -107 -31 -107 -55 0 -19 5 -19 41 2 15 9 31 14 35
10 10 -9 -26 -47 -44 -47 -27 0 -112 -62 -128 -92 -20 -39 -13 -45 22 -15 21
19 32 22 44 14 14 -8 10 -16 -29 -52 -25 -23 -53 -46 -62 -51 -24 -13 -109
-128 -98 -132 5 -2 24 8 41 23 35 30 51 18 19 -14 -34 -34 -67 -52 -85 -45 -9
3 -16 4 -16 0 0 -3 -9 -28 -20 -56 -20 -50 -10 -72 12 -26 16 37 40 43 32 8
-7 -26 -39 -62 -55 -62 -16 0 -51 -82 -41 -92 13 -13 32 -2 32 18 0 8 7 14 15
14 19 0 19 -10 -1 -24 -8 -6 -16 -26 -16 -43 -1 -22 -12 -44 -35 -68 -35 -37
-44 -75 -17 -75 13 0 12 -5 -5 -34 -12 -18 -21 -43 -21 -55 0 -18 4 -21 21
-16 27 9 22 1 -44 -79 -44 -54 -48 -62 -42 -97 4 -22 2 -46 -5 -59 -15 -27 -5
-38 20 -22 11 7 24 12 30 12 22 0 8 -17 -30 -39 -22 -12 -40 -29 -40 -38 0 -9
-6 -13 -14 -10 -10 4 -19 -6 -27 -31 -7 -20 -12 -41 -11 -46 2 -4 -2 -14 -8
-21 -22 -27 -1 -91 46 -142 31 -34 44 -64 44 -105 0 -29 -1 -30 -17 -16 -14
12 -25 13 -53 5 -34 -10 -34 -10 -10 -17 24 -8 24 -8 2 -9 -17 -1 -24 -9 -29
-32 -4 -23 -10 -29 -24 -26 -10 3 -24 -2 -31 -11 -11 -13 -10 -15 4 -9 12 4
18 2 18 -7 0 -9 -7 -12 -20 -9 -15 4 -20 -1 -25 -23 -7 -32 -8 -33 -55 -149
-17 -42 -26 -201 -12 -217 6 -8 9 -44 7 -86 -3 -62 -1 -71 11 -61 20 16 19
-22 -1 -61 -9 -17 -11 -30 -6 -30 5 0 11 6 14 12 6 17 13 9 21 -24 5 -21 3
-28 -9 -28 -8 0 -15 -9 -15 -20 0 -11 5 -20 10 -20 6 0 10 -10 9 -22 l0 -23
-9 23 c-11 27 -34 30 -25 2 3 -10 2 -27 -3 -37 -5 -10 -6 -27 -2 -38 4 -11 -1
-39 -11 -66 -15 -42 -15 -50 -2 -68 19 -28 1 -61 -32 -61 -31 0 -43 -20 -21
-35 10 -8 14 -19 10 -29 -6 -15 -1 -17 27 -14 29 2 34 7 37 31 4 31 22 37 22
7 0 -11 7 -20 15 -20 8 0 15 -6 15 -14 0 -8 8 -17 17 -20 14 -6 15 -9 4 -15
-10 -6 -5 -11 18 -16 22 -5 31 -12 31 -26 0 -10 -4 -19 -10 -19 -5 0 -10 5
-10 10 0 6 -10 10 -22 10 -12 0 -30 7 -40 17 -13 11 -18 12 -18 3 0 -10 -15
-11 -64 -6 -68 7 -93 -5 -80 -38 5 -14 2 -16 -22 -11 -28 6 -28 6 5 -11 27
-15 36 -15 53 -5 16 10 22 10 28 1 5 -9 9 -9 14 -1 10 16 35 14 52 -4 9 -9 34
-15 59 -15 35 0 46 -5 59 -25 17 -26 9 -34 -12 -13 -7 7 -12 8 -12 2 0 -5 5
-15 12 -22 9 -9 8 -18 -3 -39 -8 -16 -18 -31 -24 -35 -6 -5 -1 -14 12 -23 25
-17 31 -45 11 -45 -10 0 -13 -26 -13 -94 0 -82 -2 -96 -17 -100 -12 -2 -16
-10 -12 -20 12 -31 -45 -19 -82 18 -18 18 -36 31 -39 28 -3 -3 -5 6 -5 19 1
27 21 59 38 59 20 0 23 20 8 42 -9 12 -16 32 -16 44 0 12 -7 27 -15 34 -12 10
-15 10 -15 -4 0 -9 -7 -16 -15 -16 -8 0 -15 -4 -15 -10 0 -5 -11 -10 -25 -10
-14 0 -25 -5 -25 -11 0 -8 -18 -9 -55 -5 -45 5 -55 3 -55 -9 0 -8 7 -15 16
-15 9 0 13 -5 10 -12 -3 -7 -9 -21 -12 -31 -5 -14 -13 -17 -31 -12 -21 5 -24
3 -21 -21 2 -18 -3 -30 -17 -38 -29 -16 -48 -36 -36 -36 18 0 12 -24 -9 -43
-23 -19 -29 -87 -7 -87 8 0 7 -3 -3 -9 -8 -6 -17 -8 -21 -6 -15 10 -31 -46
-27 -94 4 -39 2 -51 -8 -51 -9 0 -14 -11 -14 -30 l0 -30 449 0 c294 0 452 4
456 10 4 6 10 8 15 5 11 -7 33 22 25 34 -3 6 0 8 9 5 16 -6 103 21 124 39 11
9 19 6 38 -16 29 -34 58 -37 48 -4 -11 36 -36 58 -63 55 -17 -2 -25 2 -23 10
3 19 -49 36 -59 20 -10 -16 -49 -19 -49 -5 0 7 -5 6 -12 -1 -10 -10 -10 -15 2
-22 10 -6 11 -13 5 -19 -18 -18 -38 5 -37 41 1 53 3 67 23 178 26 145 51 250
60 256 4 2 11 26 14 52 16 120 67 296 114 392 15 30 31 68 35 84 10 39 21 23
36 -54 7 -36 22 -99 32 -140 11 -41 21 -109 23 -150 2 -41 11 -115 20 -165 12
-63 14 -90 6 -93 -16 -5 -14 -22 3 -22 8 0 17 -13 21 -29 3 -15 28 -53 55 -84
28 -30 50 -59 50 -64 0 -4 9 -14 19 -20 15 -10 21 -10 24 0 15 36 4 -58 -12
-104 -10 -30 -21 -84 -25 -121 l-8 -68 70 0 69 0 7 92 c8 119 34 178 77 178
l30 0 -6 -77 c-4 -43 -15 -99 -26 -125 -10 -26 -19 -51 -19 -57 0 -8 481 -11
1620 -11 1155 0 1620 3 1620 11 0 6 -15 29 -33 52 -19 23 -39 57 -46 74 -11
27 -16 31 -32 22 -17 -8 -18 -6 -15 23 5 41 1 47 -25 41 -14 -4 -19 -12 -16
-23 2 -10 1 -24 -4 -31 -7 -11 -9 -10 -9 4 0 9 -7 17 -15 17 -8 0 -15 7 -15
15 0 8 9 15 20 15 22 0 24 11 14 72 -5 28 -11 38 -25 38 -11 0 -19 -7 -19 -15
0 -8 5 -15 10 -15 15 0 12 -27 -4 -33 -9 -4 -17 1 -20 11 -3 10 -8 118 -11
240 -2 123 -7 262 -10 310 -6 91 4 177 20 177 5 0 18 -45 29 -100 11 -55 26
-106 33 -113 7 -7 13 -22 13 -33 0 -11 13 -53 28 -92 46 -117 54 -140 62 -187
4 -25 11 -56 16 -70 6 -14 10 -41 9 -60 0 -26 -5 -35 -20 -38 -32 -6 -41 -21
-21 -35 15 -11 16 -18 8 -33 -9 -17 -5 -23 24 -43 19 -13 34 -27 34 -32 0 -5
8 -9 18 -9 20 0 42 -38 42 -70 0 -11 5 -20 12 -20 6 0 9 -3 5 -6 -3 -3 -1 -19
5 -35 10 -29 11 -29 90 -29 91 0 86 -11 53 105 -9 33 -23 87 -31 120 -8 33
-24 84 -34 113 -11 29 -20 67 -20 85 0 18 -9 50 -18 72 -10 22 -24 69 -32 105
-7 36 -17 73 -22 82 -8 17 -29 91 -68 245 -10 40 -21 77 -25 84 -4 6 -18 48
-30 93 -13 44 -37 118 -53 164 -17 46 -34 102 -37 124 -4 23 -14 56 -21 75
-12 28 -18 32 -38 27 -21 -5 -24 -2 -30 42 -9 68 -7 122 4 129 6 3 11 -2 11
-12 1 -10 5 2 9 27 4 25 22 81 39 125 25 63 30 89 26 122 -4 28 -2 43 4 43 14
0 14 47 1 55 -15 9 -12 36 6 56 9 10 33 65 54 121 99 269 131 352 179 463 63
145 109 215 161 244 22 12 71 56 109 98 l71 76 37 -10 c21 -6 56 -15 78 -21
22 -5 72 -22 110 -37 66 -26 165 -55 280 -84 69 -17 278 -53 345 -58 30 -3 60
-9 65 -13 6 -5 92 -9 192 -9 100 -1 206 -6 234 -11 29 -6 73 -10 99 -10 26 0
82 -9 125 -20 92 -24 190 -19 243 11 18 11 41 19 50 19 9 0 28 9 42 20 14 11
35 20 48 20 13 0 22 6 22 15 0 8 5 15 11 15 15 0 82 69 104 106 15 26 16 40 8
87 -6 31 -9 82 -7 114 3 84 -14 352 -25 393 -5 19 -15 62 -21 95 -7 33 -18 76
-25 95 -79 212 -115 297 -167 393 -54 98 -100 171 -119 187 -5 4 -33 52 -67
116 -43 81 -63 139 -56 168 32 136 -59 329 -124 264 -9 -9 -6 -19 13 -44 28
-37 33 -54 9 -30 -8 9 -22 16 -30 16 -8 0 -13 5 -11 11 1 6 -4 14 -12 17 -10
3 -12 0 -8 -12 15 -38 -39 -3 -62 41 -7 15 -19 20 -36 19 -28 -4 -31 3 -12 23
6 7 8 11 2 10 -5 -1 -23 3 -38 9 -16 7 -33 12 -38 12 -5 0 -9 6 -9 13 0 6 -8
-1 -18 -18 -14 -23 -16 -34 -8 -47 12 -20 3 -32 -31 -43 -20 -5 -23 -3 -23 19
0 14 5 26 10 26 6 0 10 9 10 20 0 11 6 23 13 26 21 8 7 94 -18 108 -11 5 -32
18 -46 27 -18 12 -38 16 -72 12 -26 -3 -47 -9 -47 -13 0 -4 -9 -17 -20 -30
-11 -13 -23 -34 -26 -47 -7 -25 -63 -87 -71 -79 -3 2 11 29 31 59 20 30 44 79
54 110 10 30 26 62 34 70 14 14 18 14 47 -4 38 -23 42 -8 4 17 -15 9 -36 25
-46 35 -14 12 -29 16 -60 12 -49 -6 -74 -31 -112 -110 -14 -29 -30 -53 -37
-53 -6 0 -9 -3 -5 -6 3 -3 -11 -21 -30 -41 -26 -25 -38 -31 -44 -22 -6 10 -13
6 -28 -12 -11 -13 -20 -20 -21 -16 0 17 35 73 92 146 97 123 122 152 146 165
l22 12 -37 38 c-33 33 -41 37 -73 32 -38 -6 -100 -65 -100 -96 0 -10 -11 -34
-25 -54 -14 -20 -25 -41 -25 -46 0 -13 23 -13 36 -1 5 6 10 -3 11 -25 1 -30
-4 -38 -43 -65 -24 -16 -48 -28 -53 -25 -12 8 -74 -15 -87 -32 -14 -19 -74
-26 -74 -9 0 7 9 37 20 66 11 30 18 57 15 59 -2 3 -7 -3 -11 -12 -3 -9 -15
-16 -25 -16 -35 0 -99 -34 -99 -52 0 -15 34 -57 111 -139 16 -16 15 -18 -12
-38 -15 -12 -35 -21 -43 -21 -49 0 -64 -56 -27 -101 16 -20 29 -24 87 -26 90
-3 130 -10 176 -34 21 -11 82 -31 136 -45 82 -22 109 -25 178 -19 l81 7 7 -32
c3 -17 19 -44 36 -58 32 -29 39 -45 15 -35 -14 5 -14 2 -3 -23 7 -16 32 -59
57 -96 39 -61 44 -75 47 -137 2 -38 8 -88 13 -112 10 -50 6 -281 -7 -379 -5
-36 -7 -70 -5 -76 2 -7 0 -15 -6 -18 -6 -4 -8 -20 -4 -36 6 -34 -2 -38 -29
-13 -16 15 -26 15 -71 6 -29 -6 -74 -9 -101 -7 -28 2 -56 -2 -64 -8 -10 -9
-15 -9 -21 0 -9 14 -81 4 -81 -12 0 -6 -17 -11 -40 -11 -22 0 -40 4 -40 9 0 5
-11 -1 -24 -14 -15 -13 -32 -20 -40 -17 -9 4 -16 2 -16 -3 0 -6 -18 -10 -40
-10 -38 0 -40 -2 -40 -30 0 -20 -5 -30 -15 -30 -18 0 -19 -12 -3 -28 9 -9 8
-12 -5 -12 -9 0 -17 -6 -17 -14 0 -20 -18 -30 -33 -18 -7 5 -31 7 -55 4 -35
-3 -43 -8 -48 -29 -6 -22 -8 -23 -16 -9 -6 11 -4 32 6 63 19 55 19 56 6 48
-15 -9 -12 10 14 88 34 100 48 179 41 224 -9 49 -34 119 -59 161 -17 29 -23
33 -48 28 -20 -4 -52 3 -101 23 -288 118 -407 150 -572 156 -61 2 -117 7 -126
10 -9 3 -38 5 -65 3 -45 -3 -49 -5 -46 -26 l2 -24 -29 25 c-32 26 -90 42 -121
32 -30 -9 -24 -32 9 -38 17 -4 45 -20 63 -37 l33 -31 -35 21 c-55 32 -57 24
-6 -27 68 -67 95 -125 127 -271 10 -50 -1 -82 -30 -82 -19 0 -37 42 -26 60 4
6 2 10 -3 10 -5 0 -15 19 -21 43 -12 46 -31 82 -31 59 0 -7 5 -22 10 -33 16
-28 4 -40 -26 -27 -21 10 -25 17 -20 40 l6 28 -66 -3 c-50 -3 -71 0 -87 13
-38 29 -137 57 -137 38 0 -5 -5 -6 -11 -3 -6 4 -13 -3 -16 -15 -6 -22 -7 -22
-20 -4 -12 17 -13 15 -7 -13 3 -18 2 -33 -5 -37 -7 -4 -11 1 -11 13 0 11 -4
23 -10 26 -5 3 -10 14 -10 24 0 10 -9 26 -20 36 -33 30 -76 113 -105 205 -15
47 -41 110 -58 140 -18 30 -34 68 -37 84 -6 36 -36 58 -50 36 -8 -12 -10 -10
-10 8 0 15 -4 21 -12 16 -7 -4 -8 -3 -4 4 4 6 1 24 -7 39 -15 31 -15 73 2 277
6 71 11 134 11 139 0 6 -13 -2 -30 -18 -39 -38 -38 -19 2 36 39 54 78 125 78
143 0 8 7 17 16 20 9 4 14 9 11 12 -3 3 3 21 14 40 10 19 19 53 19 75 0 24 4
38 10 34 14 -8 13 31 -1 57 -9 17 -9 20 3 15 18 -6 19 3 21 151 1 56 5 102 9
102 4 0 4 10 -1 23 -6 15 -4 26 5 35 21 19 23 163 4 232 -6 19 -10 47 -10 63
0 15 -5 27 -11 27 -8 0 -10 16 -6 49 5 40 2 55 -14 74 -20 27 -24 63 -10 86 8
12 12 12 25 2 9 -8 16 -10 17 -5 2 32 32 -86 39 -156 30 -288 32 -330 20 -378
-6 -26 -14 -91 -17 -146 l-6 -98 27 17 c21 14 26 23 21 39 -15 47 -17 76 -5
76 8 0 10 -8 7 -23 -4 -12 -2 -29 3 -37 7 -11 10 -9 14 11 16 73 36 238 36
293 0 58 -2 65 -31 91 l-32 28 7 206 7 206 -30 90 c-51 156 -71 207 -104 254
-52 76 -177 194 -237 223 -91 44 -141 62 -166 60 -13 -1 -26 3 -29 9 -4 5 -16
7 -26 4 -11 -4 -25 -2 -32 3 -16 12 -68 21 -87 15z m-562 -361 c3 -18 8 -22
20 -16 9 4 42 10 72 14 30 4 72 13 92 19 73 23 197 -6 198 -46 0 -8 -13 -13
-31 -13 -17 0 -28 -4 -24 -10 3 -5 3 -10 -2 -11 -27 -2 -47 -9 -56 -18 -6 -6
-18 -11 -25 -11 -8 0 -31 -16 -50 -36 -32 -33 -33 -36 -17 -54 16 -17 15 -19
-6 -25 -14 -5 -25 -3 -27 4 -2 7 -13 6 -34 -5 -16 -8 -36 -13 -43 -10 -9 3
-12 0 -8 -10 3 -7 0 -14 -6 -14 -6 0 -11 5 -11 10 0 6 -7 10 -15 10 -8 0 -15
6 -15 13 0 14 -35 47 -50 47 -6 0 -10 9 -10 20 0 11 -4 20 -9 20 -7 0 -8 8 -2
56 0 7 9 11 19 10 27 -2 23 47 -5 59 -33 14 -28 27 10 23 25 -2 33 -8 35 -26z
m418 -241 c-3 -5 -15 -7 -26 -4 -28 7 -25 13 6 13 14 0 23 -4 20 -9z m-223
-48 c-7 -2 -19 -2 -25 0 -7 3 -2 5 12 5 14 0 19 -2 13 -5z m947 -364 c0 -6 -4
-7 -10 -4 -5 3 -10 11 -10 16 0 6 5 7 10 4 6 -3 10 -11 10 -16z m-464 -205
c-3 -9 -12 -14 -19 -12 -13 5 -19 46 -9 63 4 6 7 13 8 18 4 21 7 19 16 -16 6
-20 7 -44 4 -53z m-66 -13 c0 -12 -20 -25 -27 -18 -7 7 6 27 18 27 5 0 9 -4 9
-9z m-100 -65 c0 -3 -4 -8 -10 -11 -5 -3 -10 -1 -10 4 0 6 5 11 10 11 6 0 10
-2 10 -4z m2702 -648 c-7 -7 -12 -23 -12 -36 0 -13 -4 -21 -9 -18 -5 3 -7 16
-3 28 3 14 2 19 -6 14 -7 -4 -12 -3 -12 2 0 5 9 12 21 15 14 4 18 10 14 19 -6
10 -5 11 6 1 10 -10 10 -16 1 -25z m263 -119 c4 -6 -1 -16 -11 -24 -23 -16
-28 -13 -19 14 7 23 20 27 30 10z m-83 -44 c-2 -14 -8 -25 -12 -25 -4 0 -5 11
-2 25 2 14 8 25 12 25 4 0 5 -11 2 -25z m-522 -17 c0 -13 -43 -48 -52 -42 -16
10 -8 43 14 58 21 15 37 8 38 -16z m1019 -52 l-2 -41 -7 40 c-4 22 -10 49 -14
60 -8 20 -7 20 8 1 9 -12 15 -37 15 -60z m-4144 -696 c-3 -5 -10 -10 -16 -10
-5 0 -9 5 -9 10 0 6 7 10 16 10 8 0 12 -4 9 -10z m1978 -317 c-13 -2 -33 -2
-45 0 -13 2 -3 4 22 4 25 0 35 -2 23 -4z m-3568 -253 c-3 -5 -10 -10 -16 -10
-5 0 -9 5 -9 10 0 6 7 10 16 10 8 0 12 -4 9 -10z m4825 -20 c0 -11 -4 -20 -10
-20 -5 0 -10 2 -10 4 0 2 -3 11 -6 20 -4 11 -1 16 10 16 9 0 16 -8 16 -20z
m-13 -62 c-3 -8 -6 -5 -6 6 -1 11 2 17 5 13 3 -3 4 -12 1 -19z m-1400 -20 c-3
-8 -6 -5 -6 6 -1 11 2 17 5 13 3 -3 4 -12 1 -19z m1157 -32 c-3 -15 -13 -26
-23 -26 -10 0 -12 3 -5 8 6 4 15 17 19 30 9 32 18 21 9 -12z m-3223 -129 c-7
-7 -15 -6 -26 3 -14 11 -13 16 5 47 11 19 21 42 22 51 1 9 3 -7 5 -37 2 -30 0
-58 -6 -64z m-289 8 c-3 -5 -10 3 -15 18 -7 22 -12 26 -23 16 -11 -9 -14 -6
-14 18 0 16 3 32 6 36 9 8 53 -76 46 -88z m112 88 c9 -9 14 -10 61 -12 25 -1
39 -8 51 -26 9 -14 15 -27 13 -29 -2 -2 -24 -7 -49 -10 -33 -5 -41 -4 -30 3 8
6 12 11 8 11 -3 0 -13 3 -22 6 -11 4 -16 1 -16 -10 0 -11 -9 -16 -29 -16 -48
0 -57 -19 -64 -125 -5 -90 -10 -115 -21 -104 -7 6 20 295 29 308 7 12 58 15
69 4z m-195 -280 c-7 -79 -16 -143 -21 -143 -5 0 -7 12 -4 28 3 15 8 101 11
192 3 91 9 174 13 185 13 37 14 -117 1 -262z m-51 233 c-2 -19 0 -32 4 -30 4
3 8 14 8 25 0 10 5 19 11 19 7 0 9 -9 5 -22 -3 -13 -6 -39 -7 -58 l-1 -35 -10
29 c-8 22 -13 25 -20 15 -7 -10 -8 -3 -4 20 3 18 6 42 6 52 0 11 3 19 6 19 3
0 4 -15 2 -34z m-21 -8 c-3 -8 -6 -5 -6 6 -1 11 2 17 5 13 3 -3 4 -12 1 -19z
m1 -106 c6 -2 10 2 9 10 -2 7 -2 10 0 6 3 -5 11 -8 19 -8 8 0 14 -10 14 -25 0
-30 -3 -30 -43 -7 -18 9 -33 18 -35 18 -1 1 1 21 5 45 l8 44 5 -39 c3 -22 11
-41 18 -44z m432 -109 c-4 -42 -5 -44 -8 -15 -3 30 2 62 10 62 2 0 1 -21 -2
-47z m-450 33 c0 -3 -4 -8 -10 -11 -5 -3 -10 -1 -10 4 0 6 5 11 10 11 6 0 10
-2 10 -4z m192 -158 c-7 -7 -12 -8 -12 -2 0 6 3 14 7 17 3 4 9 5 12 2 2 -3 -1
-11 -7 -17z m2356 -28 c15 0 15 -2 2 -10 -35 -23 -51 1 -32 47 6 15 8 13 10
-9 2 -18 9 -28 20 -28z m142 40 c0 -5 -4 -10 -10 -10 -5 0 -10 5 -10 10 0 6 5
10 10 10 6 0 10 -4 10 -10z m-60 -21 c0 -5 -9 -9 -20 -9 -17 0 -19 2 -8 14 13
14 28 12 28 -5z m-2193 -11 c-3 -8 -6 -5 -6 6 -1 11 2 17 5 13 3 -3 4 -12 1
-19z m2243 -8 c0 -5 -5 -10 -11 -10 -5 0 -7 5 -4 10 3 6 8 10 11 10 2 0 4 -4
4 -10z m-40 -14 c0 -2 -7 -7 -16 -10 -8 -3 -12 -2 -9 4 6 10 25 14 25 6z m64
-45 c3 -4 -6 -13 -19 -19 -14 -7 -25 -16 -25 -21 0 -5 -9 -7 -20 -4 -11 3 -27
0 -35 -7 -9 -7 -18 -10 -21 -7 -7 7 36 30 61 32 10 1 24 9 29 18 12 19 22 21
30 8z m-2527 -53 c-3 -8 -6 -5 -6 6 -1 11 2 17 5 13 3 -3 4 -12 1 -19z m-112
-18 c8 -13 -5 -13 -25 0 -13 8 -13 10 2 10 9 0 20 -4 23 -10z m2493 3 c-10 -2
-18 -14 -19 -26 0 -21 -1 -21 -8 -2 -9 21 3 35 29 34 11 -1 10 -3 -2 -6z
m-2502 -50 c-10 -10 -19 5 -10 18 6 11 8 11 12 0 2 -7 1 -15 -2 -18z m121 -25
c-2 -13 -4 -5 -4 17 -1 22 1 32 4 23 2 -10 2 -28 0 -40z m2163 42 c-8 -5 -24
-9 -35 -9 -16 1 -16 2 5 9 35 11 48 11 30 0z m-2085 -28 c0 -18 -20 -15 -23 4
-3 10 1 15 10 12 7 -3 13 -10 13 -16z m2015 8 c0 -5 -5 -10 -11 -10 -5 0 -7 5
-4 10 3 6 8 10 11 10 2 0 4 -4 4 -10z m-1853 -77 c-3 -10 -5 -4 -5 12 0 17 2
24 5 18 2 -7 2 -21 0 -30z m-250 -60 c-3 -10 -5 -4 -5 12 0 17 2 24 5 18 2 -7
2 -21 0 -30z m1790 31 c-3 -3 -12 -4 -19 -1 -8 3 -5 6 6 6 11 1 17 -2 13 -5z
m863 -145 c-20 -133 -37 -211 -39 -176 -1 10 -5 16 -10 12 -5 -3 -13 0 -16 5
-10 16 3 60 18 60 13 0 37 79 37 120 0 28 21 122 26 117 3 -2 -5 -65 -16 -138z
m-1000 101 c0 -5 -8 -10 -17 -10 -15 0 -16 2 -3 10 19 12 20 12 20 0z m57 -57
c0 -16 -1 -20 -4 -10 -3 10 -15 17 -31 18 l-27 1 25 8 c14 4 27 8 30 9 3 1 6
-11 7 -26z m-1467 -19 c0 -8 -4 -12 -10 -9 -5 3 -10 10 -10 16 0 5 5 9 10 9 6
0 10 -7 10 -16z m1278 5 c-10 -5 -18 -17 -18 -25 0 -19 45 -84 100 -144 29
-32 40 -51 36 -65 -5 -21 42 -143 78 -202 l17 -28 -26 30 c-14 17 -28 40 -31
52 -3 13 -10 20 -15 17 -5 -3 -6 3 -2 12 4 11 3 15 -5 10 -6 -3 -15 2 -21 11
-9 16 -10 14 -11 -10 0 -27 -4 -30 -65 -53 -11 -4 -25 -6 -32 -5 -7 1 -9 -7
-6 -19 8 -31 -23 -15 -37 20 -15 36 5 74 56 108 20 13 34 30 34 42 0 11 6 20
13 20 17 0 16 42 -2 63 -15 19 -61 23 -61 6 0 -6 -9 -9 -20 -6 -17 4 -20 0
-20 -29 0 -19 -5 -34 -11 -34 -6 0 -9 -9 -6 -20 3 -11 1 -20 -4 -20 -13 0 -11
50 6 160 14 92 28 121 59 120 6 0 3 -5 -6 -11z m-151 -5 c-3 -3 -12 -4 -19 -1
-8 3 -5 6 6 6 11 1 17 -2 13 -5z m-52 -14 c-27 -12 -43 -12 -25 0 8 5 22 9 30
9 10 0 8 -3 -5 -9z m-55 -15 c0 -5 -50 -27 -88 -39 -13 -5 -22 -3 -22 3 0 6
21 17 48 25 53 16 62 18 62 11z m-1285 -122 c-4 -52 -9 -92 -12 -89 -3 2 -1
51 3 108 4 57 9 97 12 90 2 -8 1 -56 -3 -109z m1742 80 c-3 -10 -5 -4 -5 12 0
17 2 24 5 18 2 -7 2 -21 0 -30z m820 -15 c-3 -8 -6 -5 -6 6 -1 11 2 17 5 13 3
-3 4 -12 1 -19z m-1412 -5 c-16 -3 -37 -10 -45 -18 -8 -7 -28 -15 -45 -18 -27
-5 -183 -45 -260 -66 -51 -15 -90 -40 -97 -63 l-6 -23 -1 23 c-1 15 -7 22 -21
22 -11 0 -20 5 -20 10 0 6 9 10 20 10 12 0 56 11 98 25 91 29 180 53 241 66
24 5 49 13 55 18 15 12 45 19 81 18 l30 0 -30 -4z m1439 -45 c-3 -29 -13 -60
-21 -68 -13 -13 -14 -10 -8 25 7 42 24 95 32 95 2 0 1 -24 -3 -52z m-839 23
c3 -5 1 -12 -5 -16 -5 -3 -10 1 -10 9 0 18 6 21 15 7z m775 -21 c0 -5 -4 -10
-10 -10 -5 0 -10 5 -10 10 0 6 5 10 10 10 6 0 10 -4 10 -10z m-2670 -47 c0
-19 -3 -24 -9 -15 -7 11 -10 10 -15 -3 -3 -9 -6 -26 -5 -38 0 -21 1 -21 9 -2
8 19 9 19 9 -3 1 -24 -26 -72 -40 -72 -5 0 -9 7 -9 15 0 8 4 15 9 15 5 0 7 9
4 20 -5 20 27 110 40 110 4 0 7 -12 7 -27z m2660 -11 c0 -15 2 -15 10 -2 8 12
10 11 10 -7 0 -16 -4 -21 -15 -17 -10 4 -15 0 -16 -12 0 -18 -1 -18 -8 0 -9
24 -2 68 10 60 5 -3 9 -13 9 -22z m-1960 -22 c0 -5 -4 -10 -10 -10 -5 0 -10 5
-10 10 0 6 5 10 10 10 6 0 10 -4 10 -10z m2040 -5 c-7 -8 -17 -15 -22 -15 -6
0 -5 7 2 15 7 8 17 15 22 15 6 0 5 -7 -2 -15z m-2130 -21 c0 -8 -4 -14 -9 -14
-11 0 -22 26 -14 34 9 9 23 -3 23 -20z m180 16 c0 -5 -2 -10 -4 -10 -3 0 -8 5
-11 10 -3 6 -1 10 4 10 6 0 11 -4 11 -10z m1987 -32 c-3 -7 -5 -2 -5 12 0 14
2 19 5 13 2 -7 2 -19 0 -25z m-90 -15 c-3 -10 -5 -4 -5 12 0 17 2 24 5 18 2
-7 2 -21 0 -30z m-2117 12 c0 -11 -11 -15 -42 -14 -28 1 -34 3 -18 6 14 3 29
9 35 14 14 14 25 11 25 -6z m2093 -15 c3 -11 1 -20 -4 -20 -5 0 -9 9 -9 20 0
11 2 20 4 20 2 0 6 -9 9 -20z m-1833 6 c0 -3 -4 -8 -10 -11 -5 -3 -10 -1 -10
4 0 6 5 11 10 11 6 0 10 -2 10 -4z m-673 -12 c-3 -3 -12 -4 -19 -1 -8 3 -5 6
6 6 11 1 17 -2 13 -5z m713 -8 c0 -3 -4 -8 -10 -11 -5 -3 -10 -1 -10 4 0 6 5
11 10 11 6 0 10 -2 10 -4z m1895 -26 c-4 -12 -9 -19 -12 -17 -3 3 -2 15 2 27
4 12 9 19 12 17 3 -3 2 -15 -2 -27z m-2388 -23 c-2 -6 -12 -11 -22 -10 -27 2
-45 -20 -33 -40 10 -19 11 -19 -22 -22 -14 -2 -40 -6 -57 -10 -22 -5 -33 -4
-33 3 0 7 7 9 17 5 11 -4 14 -3 9 5 -13 21 -34 13 -40 -14 -5 -20 -10 -24 -19
-15 -17 17 -44 13 -52 -6 -7 -16 -9 -14 -15 7 -9 33 3 75 21 75 8 0 19 4 25 7
6 4 25 6 42 3 18 -2 34 1 37 6 4 5 21 9 38 9 24 0 28 -3 17 -10 -13 -8 -12
-10 3 -10 9 0 17 6 17 13 0 9 13 14 36 15 24 1 34 -2 31 -11z m-431 -24 c-3
-8 -1 -11 4 -8 12 7 12 -59 0 -95 -6 -17 -7 -8 -3 25 5 45 5 49 -10 36 -9 -7
-14 -17 -11 -22 9 -15 12 -226 3 -240 -5 -9 -9 10 -9 48 0 52 -3 61 -15 57
-11 -5 -13 -2 -9 10 3 9 11 16 18 16 8 0 8 2 0 8 -6 4 -14 27 -17 52 -3 25 -8
56 -12 70 -5 21 -4 20 9 -5 l14 -30 1 33 c1 36 20 74 34 65 4 -3 6 -12 3 -20z
m2800 -9 c-4 -9 -9 -15 -11 -12 -3 3 -3 13 1 22 4 9 9 15 11 12 3 -3 3 -13 -1
-22z m-2381 -3 c10 -17 -12 -21 -25 -6 -10 12 -10 15 3 15 9 0 18 -4 22 -9z
m508 -18 c-7 -2 -19 -2 -25 0 -7 3 -2 5 12 5 14 0 19 -2 13 -5z m1832 -90 c-9
-15 -14 -20 -11 -10 4 11 9 31 13 45 5 19 8 22 11 10 2 -9 -4 -29 -13 -45z
m-3851 41 c9 -3 16 -10 16 -14 0 -10 -38 -1 -46 11 -6 10 7 12 30 3z m1220
-12 c-14 -9 -27 -45 -14 -37 6 3 10 2 10 -4 0 -6 -9 -15 -20 -21 -28 -15 -17
-28 20 -22 16 2 37 -1 45 -8 9 -7 19 -10 22 -6 4 4 -6 18 -22 31 -15 14 -26
27 -23 30 2 3 17 -9 33 -25 36 -38 24 -56 -25 -38 -22 7 -35 8 -37 1 -4 -12
-53 -5 -53 8 0 5 -8 9 -17 10 -11 0 -13 3 -5 6 6 2 12 10 12 16 0 12 60 66 75
66 6 1 6 -2 -1 -7z m-515 -39 c-5 -14 -8 -32 -5 -39 6 -14 -17 -35 -63 -59
l-34 -17 7 29 c5 21 86 110 103 113 1 0 -2 -12 -8 -27z m661 -27 c0 -2 -7 -7
-16 -10 -8 -3 -12 -2 -9 4 6 10 25 14 25 6z m-315 -183 c-3 -13 -10 -21 -15
-18 -13 8 -13 65 0 65 6 0 10 10 9 23 -1 12 -1 31 1 42 2 11 5 -5 7 -34 2 -30
2 -65 -2 -78z m2086 86 c18 -21 18 -23 1 -35 -20 -16 -46 -18 -37 -4 9 15 -16
12 -49 -5 -15 -8 -35 -15 -42 -15 -8 0 -14 -4 -14 -10 0 -5 -5 -10 -11 -10 -6
0 -17 -7 -25 -15 -19 -19 -44 -19 -44 -1 0 19 42 48 121 86 76 36 77 36 100 9z
m682 -24 c-15 -24 -29 -42 -31 -40 -6 6 38 85 48 85 5 0 -3 -20 -17 -45z
m-3413 -35 c0 -5 -5 -10 -11 -10 -5 0 -7 5 -4 10 3 6 8 10 11 10 2 0 4 -4 4
-10z m2670 -4 c0 -2 -7 -7 -16 -10 -8 -3 -12 -2 -9 4 6 10 25 14 25 6z m-2910
-311 c0 -25 4 -35 15 -35 9 0 15 6 14 13 -5 42 24 51 54 17 22 -26 15 -39 -17
-33 -17 4 -26 0 -30 -14 -3 -10 -15 -24 -26 -30 -17 -12 -22 -9 -42 27 -17 29
-29 40 -47 40 -20 0 -22 3 -13 12 10 10 17 10 32 0 23 -14 44 -16 36 -3 -8 12
3 41 15 41 5 0 9 -16 9 -35z m130 -103 c0 -15 -2 -15 -10 -2 -13 20 -13 33 0
25 6 -3 10 -14 10 -23z m-320 -7 c0 -8 -4 -15 -10 -15 -5 0 -10 7 -10 15 0 8
5 15 10 15 6 0 10 -7 10 -15z m170 5 c0 -5 -4 -10 -10 -10 -5 0 -10 5 -10 10
0 6 5 10 10 10 6 0 10 -4 10 -10z m70 -30 c0 -29 4 -40 15 -40 8 0 15 8 15 17
0 9 2 14 5 11 11 -10 -7 -58 -21 -58 -8 0 -14 -4 -14 -10 0 -5 7 -10 15 -10
29 0 16 -47 -25 -88 -30 -29 -40 -48 -40 -71 0 -17 -4 -31 -10 -31 -5 0 -10
-7 -10 -15 0 -8 -7 -15 -16 -15 -12 0 -15 -6 -10 -25 4 -14 2 -25 -4 -25 -5 0
-10 -7 -10 -15 0 -17 16 -20 25 -5 10 16 35 -15 34 -42 l0 -23 -9 23 c-9 22
-40 31 -40 12 0 -7 -8 -7 -22 1 -19 10 -24 9 -36 -10 -8 -11 -20 -21 -27 -21
-8 0 -16 -6 -18 -12 -3 -7 -6 12 -7 42 0 31 -7 63 -15 74 -8 11 -15 28 -15 38
0 10 -7 18 -15 18 -9 0 -15 9 -15 24 0 13 -6 29 -14 36 -15 12 -14 22 11 78 8
18 11 37 8 43 -8 13 23 49 42 49 8 0 12 3 10 8 -3 4 9 7 26 8 18 0 39 4 48 8
14 6 16 0 11 -43 -4 -49 -4 -51 21 -51 14 0 27 -7 31 -15 9 -24 26 -18 26 9 0
18 -6 25 -22 28 -13 2 -23 10 -23 18 0 8 10 16 23 18 12 2 22 8 22 13 0 5 7 9
15 9 11 0 15 11 15 40 0 22 5 40 10 40 6 0 10 -18 10 -40z m690 -99 c0 -5 -7
-11 -14 -14 -10 -4 -13 -1 -9 9 6 15 23 19 23 5z m-59 -94 c-10 -9 -11 -8 -5
6 3 10 9 15 12 12 3 -3 0 -11 -7 -18z m-628 -42 c-3 -17 -30 -17 -37 0 -4 13
-1 16 17 13 12 -2 21 -7 20 -13z m-402 -28 c-13 -13 -26 -3 -16 12 3 6 11 8
17 5 6 -4 6 -10 -1 -17z m36 -9 c-3 -8 -6 -5 -6 6 -1 11 2 17 5 13 3 -3 4 -12
1 -19z m973 18 c0 -2 -7 -9 -15 -16 -13 -11 -14 -10 -9 4 5 14 24 23 24 12z
m-910 -16 c0 -5 -4 -10 -10 -10 -5 0 -10 5 -10 10 0 6 5 10 10 10 6 0 10 -4
10 -10z m40 -72 c0 -10 4 -18 8 -18 4 0 14 -17 21 -37 13 -34 12 -38 -9 -55
-24 -20 -50 -24 -50 -8 0 7 -6 7 -20 0 -14 -8 -26 -8 -40 0 -18 10 -20 8 -20
-24 0 -42 -20 -51 -38 -18 -14 27 -8 62 11 62 7 1 -1 8 -18 17 l-30 16 34 14
c18 8 35 23 38 33 3 11 9 20 13 20 4 0 10 9 13 20 3 11 10 20 17 20 7 0 14 -9
17 -20 8 -29 23 -24 23 8 1 26 1 26 15 8 8 -11 15 -28 15 -38z m-350 0 c0 -18
-2 -20 -9 -8 -6 8 -7 18 -5 22 9 14 14 9 14 -14z m138 -136 c2 -7 -6 -12 -17
-12 -21 0 -27 11 -14 24 9 9 26 2 31 -12z m-221 -494 c-3 -7 -5 -2 -5 12 0 14
2 19 5 13 2 -7 2 -19 0 -25z m1120 -20 c-3 -7 -5 -2 -5 12 0 14 2 19 5 13 2
-7 2 -19 0 -25z m-10 -60 c-3 -7 -5 -2 -5 12 0 14 2 19 5 13 2 -7 2 -19 0 -25z
m-1312 -51 c12 -10 14 -16 7 -21 -15 -9 -54 12 -47 25 8 12 18 11 40 -4z m-65
-72 c0 -8 -4 -15 -10 -15 -5 0 -10 7 -10 15 0 8 5 15 10 15 6 0 10 -7 10 -15z
m1627 -77 c-3 -7 -5 -2 -5 12 0 14 2 19 5 13 2 -7 2 -19 0 -25z"/>
<path d="M3300 3370 c0 -5 5 -10 11 -10 5 0 7 5 4 10 -3 6 -8 10 -11 10 -2 0
-4 -4 -4 -10z"/>
<path d="M1900 1350 c-13 -8 -12 -10 3 -10 9 0 17 5 17 10 0 12 -1 12 -20 0z"/>
<path d="M1960 1300 c0 -29 4 -40 15 -40 11 0 15 11 15 40 0 29 -4 40 -15 40
-11 0 -15 -11 -15 -40z"/>
<path d="M2000 1276 c0 -9 7 -16 16 -16 9 0 14 5 12 12 -6 18 -28 21 -28 4z"/>
<path d="M1970 1165 c0 -8 6 -15 14 -15 7 0 19 7 26 15 11 13 8 15 -14 15 -16
0 -26 -5 -26 -15z"/>
<path d="M1840 1085 c0 -8 2 -15 4 -15 2 0 6 7 10 15 3 8 1 15 -4 15 -6 0 -10
-7 -10 -15z"/>
<path d="M1815 1030 c-3 -5 1 -10 9 -10 9 0 16 5 16 10 0 6 -4 10 -9 10 -6 0
-13 -4 -16 -10z"/>
<path d="M5175 6209 c-4 -6 -5 -12 -2 -15 2 -3 7 2 10 11 7 17 1 20 -8 4z"/>
<path d="M3988 6154 c-3 -16 -8 -36 -12 -45 -10 -22 18 -32 30 -11 7 11 6 29
-2 51 l-11 35 -5 -30z"/>
<path d="M7041 5374 c-20 -23 -9 -25 18 -3 13 11 17 19 10 19 -8 -1 -20 -8
-28 -16z"/>
<path d="M6998 5315 c-26 -34 -22 -42 7 -15 25 23 32 40 18 40 -5 0 -16 -11
-25 -25z"/>
<path d="M2908 4144 c-16 -8 -28 -21 -28 -29 0 -19 15 -19 46 1 17 12 38 15
69 12 39 -5 45 -3 45 13 0 16 -8 19 -52 19 -29 -1 -65 -8 -80 -16z"/>
<path d="M2950 4106 c0 -11 40 -46 52 -46 8 0 19 -5 26 -12 9 -9 12 -8 12 4 0
8 -6 21 -14 27 -13 11 -76 33 -76 27z"/>
<path d="M2803 4063 c-41 -8 -24 -18 32 -19 57 0 72 9 33 20 -24 6 -29 6 -65
-1z"/>
<path d="M3610 3985 c0 -9 6 -12 15 -9 8 4 15 10 15 15 0 5 -7 9 -15 9 -8 0
-15 -7 -15 -15z"/>
<path d="M3610 3878 c1 -38 2 -41 12 -23 12 19 13 18 19 -10 l7 -30 1 33 c1
20 -6 39 -19 52 l-20 20 0 -42z"/>
<path d="M3602 3787 c-7 -8 -6 -18 4 -31 14 -20 14 -20 29 0 13 17 14 17 15 2
0 -9 4 -19 9 -22 4 -3 6 6 3 19 -2 14 -11 25 -18 25 -8 0 -14 5 -14 10 0 14
-15 13 -28 -3z"/>
<path d="M3625 3720 c3 -5 1 -10 -5 -10 -6 0 -8 -4 -5 -10 3 -5 18 -10 33 -10
23 1 25 2 9 11 -9 6 -15 14 -12 20 4 5 -1 9 -10 9 -9 0 -13 -4 -10 -10z"/>
<path d="M3701 3714 c0 -11 3 -14 6 -6 3 7 2 16 -1 19 -3 4 -6 -2 -5 -13z"/>
<path d="M3473 3663 c15 -2 37 -2 50 0 12 2 0 4 -28 4 -27 0 -38 -2 -22 -4z"/>
<path d="M6785 3580 c-3 -5 -1 -10 4 -10 6 0 11 5 11 10 0 6 -2 10 -4 10 -3 0
-8 -4 -11 -10z"/>
<path d="M3090 3480 c0 -5 5 -10 10 -10 6 0 10 5 10 10 0 6 -4 10 -10 10 -5 0
-10 -4 -10 -10z"/>
<path d="M8140 2611 c0 -6 5 -13 10 -16 6 -3 10 1 10 9 0 9 -4 16 -10 16 -5 0
-10 -4 -10 -9z"/>
<path d="M8177 2470 c-20 -24 -14 -44 19 -58 14 -7 24 -20 24 -32 0 -11 5 -20
10 -20 16 0 12 77 -5 94 -8 8 -15 19 -15 25 0 17 -14 13 -33 -9z"/>
<path d="M144 2430 c-95 -14 -99 -35 -13 -69 57 -22 71 -23 111 -6 12 5 27 -4
50 -27 23 -23 40 -32 56 -30 13 2 21 9 19 15 -20 46 -34 67 -44 67 -7 0 -13 4
-13 10 0 5 -10 18 -22 30 -23 21 -53 23 -144 10z"/>
<path d="M8102 2261 c0 -50 6 -57 49 -65 32 -6 37 -4 42 16 7 26 -10 51 -30
44 -7 -3 -20 6 -29 19 -23 35 -33 31 -32 -14z"/>
<path d="M540 2207 c0 -20 9 -25 31 -20 28 8 24 33 -6 33 -14 0 -25 -6 -25
-13z"/>
<path d="M425 2030 c-3 -5 -15 -10 -26 -10 -16 0 -20 -6 -17 -27 l3 -28 109
-5 c125 -6 149 2 119 38 -25 31 -173 56 -188 32z"/>
<path d="M963 2033 c-35 -6 -47 -29 -37 -66 9 -28 14 -32 44 -32 30 0 35 3 34
23 0 12 3 22 8 22 13 0 9 16 -9 37 -11 11 -27 18 -40 16z"/>
<path d="M770 1980 c0 -19 28 -22 57 -6 l28 15 -42 1 c-24 0 -43 -5 -43 -10z"/>
<path d="M8450 1782 c0 -4 9 -13 19 -19 15 -10 20 -9 24 1 3 8 3 17 0 20 -9 9
-43 7 -43 -2z"/>
<path d="M8960 1726 c-7 -9 -10 -22 -7 -31 9 -21 52 -3 52 21 0 24 -28 30 -45
10z"/>
<path d="M9636 1651 c-3 -5 1 -14 9 -21 13 -10 15 -9 15 9 0 21 -14 28 -24 12z"/>
<path d="M7688 1623 c7 -3 16 -2 19 1 4 3 -2 6 -13 5 -11 0 -14 -3 -6 -6z"/>
<path d="M9115 1550 c-6 -10 29 -50 44 -50 4 0 9 -32 10 -72 2 -65 -1 -74 -25
-99 -17 -18 -24 -34 -20 -44 4 -12 0 -19 -14 -22 -22 -6 -26 -23 -8 -41 8 -8
6 -16 -12 -30 -20 -16 -24 -30 -27 -88 -1 -38 -8 -79 -14 -91 -10 -19 -9 -26
3 -40 9 -10 19 -33 23 -51 8 -41 23 -48 110 -57 39 -4 77 -13 85 -20 20 -18
90 -17 90 0 0 8 -12 15 -27 17 -19 2 -29 10 -31 23 -3 24 -66 67 -90 63 -10
-1 -31 7 -49 20 -43 31 -54 89 -23 132 12 16 30 30 41 30 11 0 29 5 40 11 14
7 24 7 32 0 7 -5 33 -15 58 -21 39 -10 52 -9 77 4 17 9 36 25 42 37 11 20 12
20 31 -5 24 -30 24 -32 -1 -59 -19 -20 -20 -20 -18 -2 2 11 -1 21 -7 22 -5 2
-9 -12 -8 -30 2 -47 2 -47 14 -45 6 2 14 -3 16 -9 3 -8 -4 -13 -18 -13 -12 0
-19 -3 -16 -6 6 -7 20 -8 103 -12 31 -2 35 -4 24 -17 -15 -18 -8 -29 51 -84
42 -37 47 -47 42 -72 -3 -18 -1 -29 6 -29 8 0 11 50 11 166 l0 166 -30 -4
c-16 -3 -30 -1 -30 4 0 11 -33 43 -54 51 -9 4 -14 11 -11 17 3 5 1 10 -4 10
-6 0 -11 -5 -11 -12 0 -6 -10 -2 -22 10 -17 15 -27 18 -40 11 -13 -7 -18 -5
-23 11 -3 11 -22 27 -41 36 -19 9 -35 24 -35 33 -1 9 -3 34 -5 56 -4 68 -7 75
-24 75 -20 0 -50 30 -50 51 -1 24 -26 49 -51 49 -13 1 -35 7 -49 15 -29 17
-56 19 -65 5z m165 -670 c0 -5 -2 -10 -4 -10 -3 0 -8 5 -11 10 -3 6 -1 10 4
10 6 0 11 -4 11 -10z"/>
<path d="M9458 1522 c-19 -2 -29 -12 -37 -34 -6 -18 -18 -39 -26 -49 -14 -15
-12 -20 21 -60 20 -24 38 -42 39 -39 2 3 14 -5 28 -18 23 -22 67 -38 67 -24 0
4 -7 15 -14 25 -12 15 -12 22 -1 44 7 14 11 32 8 40 -3 8 4 24 15 36 11 12 21
36 24 52 4 30 3 30 -47 30 -27 1 -62 -1 -77 -3z"/>
<path d="M87 1433 c-16 -15 -5 -38 35 -75 46 -42 55 -45 84 -24 18 14 17 16
-30 60 -45 43 -73 55 -89 39z"/>
<path d="M9650 1410 c0 -6 -12 -16 -27 -22 -49 -21 -62 -37 -54 -66 6 -23 13
-27 49 -30 l42 -3 0 65 c0 36 -2 66 -5 66 -3 0 -5 -5 -5 -10z"/>
<path d="M7 1363 c-4 -3 -7 -24 -7 -45 0 -36 2 -38 20 -28 15 8 18 15 12 27
-5 9 -7 24 -5 34 5 19 -7 26 -20 12z"/>
<path d="M8947 1305 c-9 -9 -17 -23 -17 -31 0 -8 -4 -14 -9 -14 -14 0 -8 -34
8 -44 10 -6 18 -3 26 7 8 11 15 13 22 6 7 -7 14 -5 23 6 7 8 20 15 29 16 11 0
12 2 3 6 -10 4 -10 8 2 17 22 16 6 36 -36 42 -25 4 -39 1 -51 -11z"/>
<path d="M80 1241 c0 -12 5 -21 10 -21 6 0 10 6 10 14 0 8 -4 18 -10 21 -5 3
-10 -3 -10 -14z"/>
<path d="M40 1092 c0 -13 7 -25 15 -29 26 -9 28 4 6 28 l-21 23 0 -22z"/>
<path d="M105 1067 c-8 -19 -2 -31 13 -26 5 2 6 13 2 24 -7 19 -8 19 -15 2z"/>
<path d="M1400 920 c0 -5 5 -10 10 -10 6 0 10 5 10 10 0 6 -4 10 -10 10 -5 0
-10 -4 -10 -10z"/>
<path d="M1390 881 c0 -9 23 -21 41 -21 4 0 6 7 3 15 -7 16 -44 21 -44 6z"/>
<path d="M6670 860 c0 -5 7 -10 16 -10 8 0 12 5 9 10 -3 6 -10 10 -16 10 -5 0
-9 -4 -9 -10z"/>
<path d="M1335 760 c3 -5 10 -10 16 -10 5 0 9 5 9 10 0 6 -7 10 -16 10 -8 0
-12 -4 -9 -10z"/>
<path d="M1380 731 c-64 -6 -65 -7 -63 -34 2 -23 -3 -29 -28 -34 -16 -3 -29
-9 -29 -13 0 -9 73 -6 89 4 6 4 11 2 11 -4 0 -6 8 -10 18 -8 24 5 22 32 -3 36
-47 8 -50 14 -12 29 29 12 41 13 50 4 8 -8 8 -11 -2 -11 -7 0 -9 -4 -6 -10 9
-15 35 -12 35 4 0 8 7 17 16 20 14 5 11 28 -4 24 -4 -1 -36 -4 -72 -7z"/>
<path d="M2260 720 c14 -11 32 -20 40 -20 8 0 0 9 -18 20 -41 25 -55 25 -22 0z"/>
<path d="M1405 630 c-3 -5 -1 -10 5 -10 6 0 8 -4 5 -10 -3 -5 1 -10 9 -10 9 0
16 9 16 20 0 21 -24 28 -35 10z"/>
<path d="M2290 624 c0 -14 3 -14 15 -4 8 7 15 14 15 16 0 2 -7 4 -15 4 -8 0
-15 -7 -15 -16z"/>
<path d="M1275 594 c-19 -15 -19 -15 8 -9 17 5 27 3 27 -4 0 -6 -7 -11 -16
-11 -8 0 -12 -4 -9 -10 15 -24 105 -6 105 20 0 31 -80 41 -115 14z m85 -14 c0
-5 -4 -10 -10 -10 -5 0 -10 5 -10 10 0 6 5 10 10 10 6 0 10 -4 10 -10z"/>
<path d="M2144 561 c20 -22 26 -25 26 -13 0 4 -10 13 -22 21 -23 14 -23 14 -4
-8z"/>
<path d="M1540 438 l1 -43 14 27 c8 15 12 34 9 42 -12 30 -24 16 -24 -26z"/>
<path d="M1218 463 c7 -3 16 -2 19 1 4 3 -2 6 -13 5 -11 0 -14 -3 -6 -6z"/>
<path d="M2260 459 c0 -5 5 -7 10 -4 6 3 10 8 10 11 0 2 -4 4 -10 4 -5 0 -10
-5 -10 -11z"/>
<path d="M1176 445 c-3 -9 0 -15 9 -15 8 0 15 7 15 15 0 8 -4 15 -9 15 -5 0
-11 -7 -15 -15z"/>
<path d="M2306 365 c-3 -9 -2 -24 3 -33 9 -16 10 -16 16 0 4 9 2 24 -3 33 -8
16 -9 16 -16 0z"/>
<path d="M5857 363 c-4 -3 -7 -11 -7 -17 0 -6 5 -5 12 2 6 6 9 14 7 17 -3 3
-9 2 -12 -2z"/>
<path d="M2240 209 c0 -5 5 -7 10 -4 6 3 10 8 10 11 0 2 -4 4 -10 4 -5 0 -10
-5 -10 -11z"/>
<path d="M2025 190 c3 -5 8 -10 11 -10 2 0 4 5 4 10 0 6 -5 10 -11 10 -5 0 -7
-4 -4 -10z"/>
<path d="M2245 170 c-3 -5 -1 -10 4 -10 6 0 11 5 11 10 0 6 -2 10 -4 10 -3 0
-8 -4 -11 -10z"/>
<path d="M2307 173 c-3 -5 -4 -19 -2 -33 1 -14 3 -31 4 -37 0 -7 6 -13 12 -13
7 0 8 7 4 18 -4 9 -7 22 -7 27 0 6 3 18 7 28 7 16 -9 25 -18 10z"/>
<path d="M6220 140 c0 -5 4 -10 9 -10 6 0 13 5 16 10 3 6 -1 10 -9 10 -9 0
-16 -4 -16 -10z"/>
<path d="M2182 19 c-13 -5 -28 -7 -32 -4 -5 3 -11 1 -15 -5 -4 -6 11 -10 39
-10 34 0 46 4 46 15 0 17 -5 18 -38 4z"/>
</g>
</svg>
